<svg width="19" height="23" viewBox="0 0 19 23" fill="none" xmlns="http://www.w3.org/2000/svg">
<path d="M9.31531 2.20405L10.8062 2.03032C10.9484 2.01381 11.0484 2.16223 10.9756 2.28169L10.2111 3.53383C10.1821 3.58123 10.1792 3.63935 10.2031 3.68933L10.8343 5.00924C10.8946 5.13514 10.7796 5.27305 10.6399 5.24281L9.1745 4.92516C9.11893 4.91315 9.06092 4.92838 9.0193 4.9657L7.91849 5.9551C7.81355 6.04947 7.64241 5.9862 7.62912 5.84807L7.48809 4.39969C7.48278 4.34478 7.44979 4.29609 7.40019 4.26928L6.08862 3.56085C5.96353 3.49329 5.97283 3.31613 6.10412 3.26123L7.48233 2.68363C7.53458 2.66175 7.57222 2.6165 7.58329 2.56245L7.87355 1.13508C7.90122 0.999103 8.0779 0.952775 8.17266 1.0568L9.16564 2.14807C9.20284 2.1899 9.25885 2.2107 9.31531 2.20405Z" fill="black"/>
<path d="M17.6526 1.96249L18.845 1.82352C18.9586 1.81023 19.0388 1.92898 18.9804 2.02461L18.3688 3.02631C18.3456 3.06416 18.3432 3.11068 18.3623 3.15084L18.8671 4.20685C18.9151 4.3074 18.8233 4.41805 18.7114 4.39379L17.5393 4.13982C17.4948 4.13029 17.4486 4.14242 17.4152 4.17247L16.5347 4.96412C16.4506 5.03953 16.314 4.98897 16.3033 4.8786L16.1902 3.72002C16.1861 3.6761 16.1598 3.63709 16.1199 3.61571L15.0708 3.04885C14.971 2.99482 14.9781 2.85324 15.0834 2.80904L16.1858 2.34705C16.2275 2.32943 16.2576 2.29331 16.2666 2.24997L16.4989 1.10815C16.5209 0.999222 16.6623 0.96224 16.738 1.04545L17.5321 1.91858C17.5625 1.95123 17.6072 1.96798 17.6526 1.96249Z" fill="black"/>
<path d="M14.4099 11.0555L15.0462 10.0622C15.1068 9.96734 15.2485 9.98427 15.2858 10.0906L15.6778 11.206C15.6926 11.2481 15.727 11.2804 15.7699 11.2919L16.9001 11.5972C17.0078 11.6263 17.0359 11.7678 16.9475 11.8368L16.0205 12.559C15.9855 12.5864 15.9659 12.6292 15.9681 12.6743L16.0303 13.8564C16.0363 13.9691 15.9119 14.0397 15.8198 13.9758L14.8546 13.3067C14.818 13.2814 14.7716 13.2757 14.7303 13.292L13.6385 13.7171C13.5344 13.7577 13.4296 13.6599 13.4612 13.5517L13.7919 12.4159C13.8046 12.3727 13.7954 12.3264 13.7673 12.2916L13.0304 11.3721C12.96 11.2845 13.0196 11.1533 13.131 11.1501L14.3004 11.1175C14.3452 11.1165 14.3859 11.0932 14.4099 11.0555Z" fill="black"/>
<path d="M12.2121 8.96149L14.3287 6.91173C14.6481 6.60243 14.6481 6.09624 14.3287 5.78694L13.9856 5.45463C13.6662 5.14533 13.1435 5.14533 12.8241 5.45463L10.7075 7.50439L12.2121 8.96149Z" fill="black"/>
<path d="M10.3106 7.88867L2.137 15.8042C1.81761 16.1135 1.81761 16.6197 2.137 16.929L2.48014 17.2613C2.79953 17.5706 3.32222 17.5706 3.64161 17.2613L11.8152 9.34577L10.3106 7.88867Z" fill="black"/>
</svg>
