<svg width="17" height="22" viewBox="0 0 17 22" fill="none" xmlns="http://www.w3.org/2000/svg">
<g clip-path="url(#clip0)">
<path d="M14.5688 4.61163L10.9988 0.89803C10.7098 0.59883 10.3358 0.44043 9.92777 0.44043H3.50177C2.66877 0.44043 1.98877 1.14443 1.98877 2.00683V15.5764C1.98877 16.4388 2.66877 17.1428 3.50177 17.1428H13.5148C14.3478 17.1428 15.0278 16.4388 15.0278 15.5764V5.72043C15.0278 5.29803 14.8578 4.91083 14.5688 4.61163ZM10.4548 2.28843L13.2428 5.17483H10.7438C10.5738 5.17483 10.4548 5.03403 10.4548 4.87563V2.28843ZM13.4978 15.7876H3.50177C3.39977 15.7876 3.31477 15.6996 3.31477 15.594V2.00683C3.31477 1.90123 3.39977 1.81323 3.50177 1.81323H9.12877V4.87563C9.12877 5.80843 9.85977 6.54763 10.7438 6.54763H13.6848V15.594C13.7018 15.6996 13.6168 15.7876 13.4978 15.7876Z" fill="black"/>
<path d="M10.1319 9.09963L7.75186 11.7572L6.86786 10.7716C6.61286 10.49 6.20486 10.4724 5.93286 10.7364C5.66086 11.0004 5.64386 11.4228 5.89886 11.7044L7.25886 13.2356C7.37786 13.3764 7.56486 13.4644 7.75186 13.4644C7.93886 13.4644 8.10886 13.394 8.24486 13.2532L11.1009 10.0324C11.3559 9.75083 11.3389 9.32843 11.0669 9.06443C10.7949 8.80043 10.3869 8.81803 10.1319 9.09963Z" fill="black"/>
</g>
<defs>
<clipPath id="clip0">
<rect width="17" height="22" fill="white"/>
</clipPath>
</defs>
</svg>
