<svg width="15" height="15" viewBox="0 0 15 15" fill="none" xmlns="http://www.w3.org/2000/svg">
<path d="M0.331904 2.95869H2.97133V4.11712C2.97133 4.27366 3.09777 4.41455 3.27163 4.41455H5.21564C5.37369 4.41455 5.51593 4.28932 5.51593 4.11712V0.297434C5.51593 0.14089 5.38949 0 5.21564 0H3.28743C3.12938 0 2.98714 0.125235 2.98714 0.297434V1.45586H0.331904C0.142245 1.45586 0 1.61241 0 1.78461V2.61429C0 2.8178 0.15805 2.95869 0.331904 2.95869Z" fill="black"/>
<path d="M14.6828 1.4552H6.47998V2.95803H14.6669C14.8566 2.95803 14.9989 2.80148 14.9989 2.62928V1.7996C15.0147 1.59609 14.8566 1.4552 14.6828 1.4552Z" fill="black"/>
<path d="M14.6831 6.40308H11.7275V7.9059H14.6673C14.8569 7.9059 14.9992 7.74936 14.9992 7.57716V6.74747C15.015 6.54397 14.8569 6.40308 14.6831 6.40308Z" fill="black"/>
<path d="M0.331904 7.9051H8.21858V9.06353C8.21858 9.22007 8.34502 9.36096 8.51888 9.36096H10.4629C10.6209 9.36096 10.7632 9.23573 10.7632 9.06353V5.24385C10.7632 5.0873 10.6367 4.94641 10.4629 4.94641H8.53468C8.37663 4.94641 8.23439 5.07165 8.23439 5.24385V6.40227H0.331904C0.142245 6.40227 0 6.55882 0 6.73102V7.5607C0 7.76421 0.15805 7.9051 0.331904 7.9051Z" fill="black"/>
<path d="M14.6828 11.3495H6.47998V12.8523H14.6669C14.8566 12.8523 14.9989 12.6958 14.9989 12.5236V11.6939C15.0147 11.506 14.8566 11.3495 14.6828 11.3495Z" fill="black"/>
<path d="M5.21564 9.89429H3.28743C3.12938 9.89429 2.98714 10.0195 2.98714 10.1917V11.3502H0.331904C0.142245 11.3502 0 11.5067 0 11.6789V12.5086C0 12.6964 0.15805 12.8373 0.331904 12.8373H2.97133V13.9957C2.97133 14.1523 3.09777 14.2932 3.27163 14.2932H5.21564C5.37369 14.2932 5.51593 14.1679 5.51593 13.9957V10.1917C5.51593 10.0195 5.38949 9.89429 5.21564 9.89429Z" fill="black"/>
</svg>
