<svg width="19" height="16" viewBox="0 0 19 16" fill="none" xmlns="http://www.w3.org/2000/svg">
<path d="M9.19042 0.0025016C9.08603 0.0138635 8.98973 0.0635427 8.92049 0.141748C8.85125 0.219953 8.8141 0.32101 8.81636 0.425002V1.2505C8.03324 1.78895 7.21659 2.089 6.29636 2.089C5.33201 2.089 4.30165 1.95508 3.19886 1.5365C3.09851 1.48507 2.97241 1.45181 2.87729 1.465C2.73505 1.48444 2.60616 1.58146 2.54917 1.712L0.0291693 7.536C-0.0100207 7.62657 0.000910238 7.70203 0.00291933 7.783C0.0419264 9.35502 1.33916 10.617 2.93636 10.617C4.53356 10.617 5.80798 9.3543 5.86979 7.783C5.87317 7.69729 5.87206 7.6019 5.84354 7.536L3.69761 2.5765C4.61278 2.83195 5.48647 2.921 6.29636 2.921C7.21038 2.921 8.0492 2.66584 8.81636 2.232V13.321H4.61636V15.817H13.8564V13.321H9.65636V2.232C10.4235 2.66584 11.2623 2.921 12.1764 2.921C12.9862 2.921 13.8599 2.83195 14.7751 2.5765L12.6292 7.536C12.6007 7.6019 12.5995 7.69729 12.6029 7.783C12.6647 9.3543 13.9392 10.617 15.5364 10.617C17.1336 10.617 18.4308 9.35502 18.4698 7.783C18.4718 7.70203 18.4827 7.62658 18.4435 7.536L15.9235 1.712C15.8666 1.58147 15.7377 1.48445 15.5954 1.465C15.5003 1.45181 15.3742 1.48507 15.2739 1.5365C14.1711 1.95508 13.1407 2.089 12.1764 2.089C11.2561 2.089 10.4395 1.78895 9.65636 1.2505V0.425002C9.65765 0.365781 9.64615 0.306972 9.62264 0.252506C9.59914 0.19804 9.56416 0.149173 9.52005 0.109176C9.47594 0.0691776 9.42371 0.0389701 9.36687 0.0205736C9.31002 0.00217708 9.24986 -0.00398427 9.19042 0.0025016ZM2.93636 2.9405L4.81979 7.289H1.05292L2.93636 2.9405ZM15.5364 2.9405L17.4198 7.289H13.6529L15.5364 2.9405Z" fill="black"/>
</svg>
