<svg width="15" height="15" viewBox="0 0 15 15" fill="none" xmlns="http://www.w3.org/2000/svg">
<path d="M1.53078 9.15312V1.515H9.1689V4.46609L10.6997 4.97109V0.7575C10.6997 0.331406 10.3683 0 9.94218 0H0.757499C0.347187 0 0 0.331406 0 0.7575V9.9264C0 10.3525 0.347187 10.6839 0.757499 10.6839H4.97109L4.46609 9.15312H1.53078Z" fill="black"/>
<path d="M14.6452 12.9401L11.8203 10.1153L13.7299 8.77386C14.2191 8.44246 14.1086 7.70074 13.5405 7.51136L5.93394 5.01793C5.38159 4.82855 4.84503 5.36511 5.03441 5.91746L7.52784 13.5398C7.71722 14.0921 8.45894 14.2026 8.79034 13.7292L10.1317 11.8196L12.9566 14.6445C13.43 15.1179 14.1875 15.1179 14.6452 14.6445C15.1028 14.1553 15.1028 13.3978 14.6452 12.9401Z" fill="black"/>
</svg>
