<svg width="397" height="78" viewBox="0 0 397 78" fill="none" xmlns="http://www.w3.org/2000/svg">
<path d="M0.307912 19C4.80781 9.43019 12.3078 1.99997 16.3078 2C20.961 2.00003 59.3079 16 59.3079 21C59.3079 25.5277 32.1533 49.5699 27.1139 49.5699C19.6138 49.5699 -2.8835 25.7871 0.307912 19Z" fill="#EB9973"/>
<path d="M39 67.4999C35.8 67.4999 31 60 31 56.9999C31 53.9998 55 32.9999 58.5 31.4999C62 29.9999 67.5 30.4999 69.5 31.4999C71.5 32.4999 71.2442 38.1975 70.5 39.4999C68.5 43 43 67.4999 39 67.4999Z" fill="#F08539"/>
<path d="M11.1378 77C4.33777 74.6 -0.862248 40.3572 1.63777 40.0001C8.63775 39.0001 32.6378 64.5 32.6378 71.0001C32.6378 75.0312 19.6378 80 11.1378 77Z" fill="#BA6136"/>
<path d="M118.995 58.921C118.197 59.677 117.189 60.265 115.971 60.685C114.795 61.063 113.556 61.252 112.254 61.252C109.398 61.252 107.193 60.475 105.639 58.921C104.085 57.325 103.308 55.12 103.308 52.306V30.823H97.26V28.114H103.308V20.932H106.458V28.114H116.916V30.823H106.458V51.991C106.458 54.133 106.962 55.771 107.97 56.905C109.02 57.997 110.553 58.543 112.569 58.543C114.627 58.543 116.328 57.934 117.672 56.716L118.995 58.921ZM153.764 45.313H125.477C125.561 47.875 126.212 50.164 127.43 52.18C128.648 54.154 130.286 55.687 132.344 56.779C134.444 57.871 136.796 58.417 139.4 58.417C141.542 58.417 143.516 58.039 145.322 57.283C147.17 56.485 148.703 55.33 149.921 53.818L151.748 55.897C150.32 57.619 148.514 58.942 146.33 59.866C144.188 60.79 141.857 61.252 139.337 61.252C136.061 61.252 133.142 60.538 130.58 59.11C128.018 57.682 126.002 55.708 124.532 53.188C123.104 50.668 122.39 47.791 122.39 44.557C122.39 41.365 123.062 38.509 124.406 35.989C125.792 33.427 127.682 31.432 130.076 30.004C132.47 28.576 135.158 27.862 138.14 27.862C141.122 27.862 143.789 28.576 146.141 30.004C148.535 31.39 150.404 33.343 151.748 35.863C153.134 38.383 153.827 41.239 153.827 44.431L153.764 45.313ZM138.14 30.634C135.83 30.634 133.751 31.159 131.903 32.209C130.055 33.217 128.564 34.666 127.43 36.556C126.338 38.404 125.708 40.504 125.54 42.856H150.74C150.614 40.504 149.984 38.404 148.85 36.556C147.716 34.708 146.225 33.259 144.377 32.209C142.529 31.159 140.45 30.634 138.14 30.634ZM165.965 35.296C166.973 32.902 168.548 31.075 170.69 29.815C172.832 28.513 175.436 27.862 178.502 27.862V30.949L177.746 30.886C174.092 30.886 171.236 32.041 169.178 34.351C167.12 36.619 166.091 39.79 166.091 43.864V61H162.941V28.114H165.965V35.296ZM189.576 35.296C190.584 32.902 192.159 31.075 194.301 29.815C196.443 28.513 199.047 27.862 202.113 27.862V30.949L201.357 30.886C197.703 30.886 194.847 32.041 192.789 34.351C190.731 36.619 189.702 39.79 189.702 43.864V61H186.552V28.114H189.576V35.296ZM221.25 27.862C225.324 27.862 228.453 28.912 230.637 31.012C232.821 33.07 233.913 36.115 233.913 40.147V61H230.889V55.141C229.839 57.073 228.306 58.585 226.29 59.677C224.274 60.727 221.859 61.252 219.045 61.252C215.391 61.252 212.493 60.391 210.351 58.669C208.251 56.947 207.201 54.679 207.201 51.865C207.201 49.135 208.167 46.93 210.099 45.25C212.073 43.528 215.202 42.667 219.486 42.667H230.763V40.021C230.763 36.955 229.923 34.624 228.243 33.028C226.605 31.432 224.19 30.634 220.998 30.634C218.814 30.634 216.714 31.012 214.698 31.768C212.724 32.524 211.044 33.532 209.658 34.792L208.083 32.524C209.721 31.054 211.695 29.92 214.005 29.122C216.315 28.282 218.73 27.862 221.25 27.862ZM219.486 58.669C222.216 58.669 224.526 58.039 226.416 56.779C228.348 55.519 229.797 53.692 230.763 51.298V45.124H219.549C216.315 45.124 213.963 45.712 212.493 46.888C211.065 48.064 210.351 49.681 210.351 51.739C210.351 53.881 211.149 55.582 212.745 56.842C214.341 58.06 216.588 58.669 219.486 58.669ZM259.364 61.252C256.172 61.252 253.316 60.538 250.796 59.11C248.276 57.682 246.302 55.708 244.874 53.188C243.446 50.626 242.732 47.749 242.732 44.557C242.732 41.323 243.446 38.446 244.874 35.926C246.302 33.364 248.276 31.39 250.796 30.004C253.316 28.576 256.172 27.862 259.364 27.862C262.01 27.862 264.404 28.387 266.546 29.437C268.73 30.445 270.494 31.936 271.838 33.91L269.507 35.611C268.331 33.973 266.861 32.755 265.097 31.957C263.375 31.117 261.464 30.697 259.364 30.697C256.802 30.697 254.492 31.285 252.434 32.461C250.418 33.595 248.822 35.212 247.646 37.312C246.512 39.412 245.945 41.827 245.945 44.557C245.945 47.287 246.512 49.702 247.646 51.802C248.822 53.902 250.418 55.54 252.434 56.716C254.492 57.85 256.802 58.417 259.364 58.417C261.464 58.417 263.375 58.018 265.097 57.22C266.861 56.38 268.331 55.141 269.507 53.503L271.838 55.204C270.494 57.178 268.73 58.69 266.546 59.74C264.404 60.748 262.01 61.252 259.364 61.252ZM292.937 61.252C289.829 61.252 287.015 60.538 284.495 59.11C282.017 57.682 280.064 55.708 278.636 53.188C277.208 50.626 276.494 47.749 276.494 44.557C276.494 41.365 277.208 38.509 278.636 35.989C280.064 33.427 282.017 31.432 284.495 30.004C287.015 28.576 289.829 27.862 292.937 27.862C296.045 27.862 298.838 28.576 301.316 30.004C303.836 31.432 305.81 33.427 307.238 35.989C308.666 38.509 309.38 41.365 309.38 44.557C309.38 47.749 308.666 50.626 307.238 53.188C305.81 55.708 303.836 57.682 301.316 59.11C298.838 60.538 296.045 61.252 292.937 61.252ZM292.937 58.417C295.457 58.417 297.704 57.829 299.678 56.653C301.694 55.477 303.269 53.839 304.403 51.739C305.579 49.639 306.167 47.245 306.167 44.557C306.167 41.869 305.579 39.475 304.403 37.375C303.269 35.275 301.694 33.637 299.678 32.461C297.704 31.285 295.457 30.697 292.937 30.697C290.417 30.697 288.149 31.285 286.133 32.461C284.159 33.637 282.584 35.275 281.408 37.375C280.274 39.475 279.707 41.869 279.707 44.557C279.707 47.245 280.274 49.639 281.408 51.739C282.584 53.839 284.159 55.477 286.133 56.653C288.149 57.829 290.417 58.417 292.937 58.417ZM334.839 58.921C334.041 59.677 333.033 60.265 331.815 60.685C330.639 61.063 329.4 61.252 328.098 61.252C325.242 61.252 323.037 60.475 321.483 58.921C319.929 57.325 319.152 55.12 319.152 52.306V30.823H313.104V28.114H319.152V20.932H322.302V28.114H332.76V30.823H322.302V51.991C322.302 54.133 322.806 55.771 323.814 56.905C324.864 57.997 326.397 58.543 328.413 58.543C330.471 58.543 332.172 57.934 333.516 56.716L334.839 58.921ZM358.449 58.921C357.651 59.677 356.643 60.265 355.425 60.685C354.249 61.063 353.01 61.252 351.708 61.252C348.852 61.252 346.647 60.475 345.093 58.921C343.539 57.325 342.762 55.12 342.762 52.306V30.823H336.714V28.114H342.762V20.932H345.912V28.114H356.37V30.823H345.912V51.991C345.912 54.133 346.416 55.771 347.424 56.905C348.474 57.997 350.007 58.543 352.023 58.543C354.081 58.543 355.782 57.934 357.126 56.716L358.449 58.921ZM377.692 27.862C381.766 27.862 384.895 28.912 387.079 31.012C389.263 33.07 390.355 36.115 390.355 40.147V61H387.331V55.141C386.281 57.073 384.748 58.585 382.732 59.677C380.716 60.727 378.301 61.252 375.487 61.252C371.833 61.252 368.935 60.391 366.793 58.669C364.693 56.947 363.643 54.679 363.643 51.865C363.643 49.135 364.609 46.93 366.541 45.25C368.515 43.528 371.644 42.667 375.928 42.667H387.205V40.021C387.205 36.955 386.365 34.624 384.685 33.028C383.047 31.432 380.632 30.634 377.44 30.634C375.256 30.634 373.156 31.012 371.14 31.768C369.166 32.524 367.486 33.532 366.1 34.792L364.525 32.524C366.163 31.054 368.137 29.92 370.447 29.122C372.757 28.282 375.172 27.862 377.692 27.862ZM375.928 58.669C378.658 58.669 380.968 58.039 382.858 56.779C384.79 55.519 386.239 53.692 387.205 51.298V45.124H375.991C372.757 45.124 370.405 45.712 368.935 46.888C367.507 48.064 366.793 49.681 366.793 51.739C366.793 53.881 367.591 55.582 369.187 56.842C370.783 58.06 373.03 58.669 375.928 58.669Z" fill="black"/>
</svg>
