<svg width="26" height="28" viewBox="0 0 26 28" fill="none" xmlns="http://www.w3.org/2000/svg">
<path d="M0.112679 6.22111C1.7594 2.71905 4.504 -1.0888e-05 5.96779 0C7.67062 1.26661e-05 21.7035 5.12326 21.7035 6.95299C21.7035 8.60988 11.7664 17.408 9.92224 17.408C7.17761 17.408 -1.05521 8.70483 0.112679 6.22111Z" fill="#EB9973"/>
<path d="M14.2719 23.9695C13.1009 23.9695 11.3444 21.2249 11.3444 20.1271C11.3444 19.0292 20.1271 11.3443 21.4079 10.7954C22.6887 10.2465 24.7014 10.4295 25.4333 10.7954C26.1652 11.1614 26.0716 13.2464 25.7993 13.723C25.0674 15.0038 15.7357 23.9695 14.2719 23.9695Z" fill="#F08539"/>
<path d="M4.07585 27.446C1.58741 26.5677 -0.315517 14.0367 0.599356 13.906C3.16098 13.54 11.9437 22.8717 11.9437 25.2503C11.9437 26.7255 7.1864 28.5439 4.07585 27.446Z" fill="#BA6136"/>
</svg>
