<svg width="30" height="31" viewBox="0 0 30 31" fill="none" xmlns="http://www.w3.org/2000/svg">
<path d="M25.8328 2.49503C23.4703 0.927979 20.6391 0.927979 15 0.927979C9.36094 0.927979 6.52969 0.927979 4.16719 2.49503C3.14062 3.17858 2.26875 4.03883 1.57969 5.06183C4.47035e-07 7.40543 0 10.214 0 15.808C0 21.4019 4.47035e-07 24.2105 1.57969 26.5541C2.26875 27.5725 3.13594 28.4374 4.16719 29.1209C6.52969 30.688 9.36094 30.688 15 30.688C20.6391 30.688 23.4703 30.688 25.8328 29.1209C26.8594 28.4374 27.7312 27.5771 28.4203 26.5541C30 24.2105 30 21.4019 30 15.808C30 10.214 30 7.40543 28.4203 5.06183C27.7312 4.04348 26.8641 3.17858 25.8328 2.49503ZM25.3031 24.4895C24.8906 25.1033 24.3656 25.6195 23.7516 26.0287C22.3312 26.968 19.8844 26.968 15 26.968C10.1156 26.968 7.66875 26.968 6.24844 26.0287C5.62969 25.6195 5.10938 25.0987 4.69688 24.4895C3.75 23.0806 3.75 20.6533 3.75 15.808C3.75 10.9627 3.75 8.53538 4.69688 7.12643C5.10938 6.51263 5.63438 5.99648 6.24844 5.58728C7.66875 4.64798 10.1156 4.64798 15 4.64798C19.8844 4.64798 22.3312 4.64798 23.7516 5.58728C24.3703 5.99648 24.8906 6.51728 25.3031 7.12643C26.25 8.53538 26.25 10.9627 26.25 15.808C26.25 20.6533 26.25 23.0806 25.3031 24.4895Z" fill="#F5BF4F"/>
<path d="M20.625 10.2279H15.9375C14.9016 10.2279 14.0625 11.0603 14.0625 12.0879C14.0625 13.1156 14.9016 13.9479 15.9375 13.9479H20.625C21.6609 13.9479 22.5 13.1156 22.5 12.0879C22.5 11.0603 21.6609 10.2279 20.625 10.2279Z" fill="#F5BF4F"/>
<path d="M8.33437 13.6363C8.4375 13.7014 8.54531 13.7572 8.65781 13.8037C8.77031 13.8502 8.8875 13.8874 9.00938 13.9106C9.13125 13.9385 9.25312 13.9478 9.375 13.9478C9.49688 13.9478 9.61875 13.9385 9.74062 13.9106C9.8625 13.8874 9.97969 13.8502 10.0922 13.8037C10.2047 13.7572 10.3125 13.7014 10.4156 13.6363C10.5188 13.5665 10.6125 13.4875 10.7016 13.4038C10.7859 13.3154 10.8656 13.2224 10.9359 13.1201C11.0016 13.0178 11.0578 12.9109 11.1047 12.7993C11.1516 12.6877 11.1891 12.5714 11.2125 12.4505C11.2359 12.3296 11.25 12.2087 11.25 12.0878C11.25 11.9669 11.2359 11.846 11.2125 11.7251C11.1891 11.6042 11.1516 11.488 11.1047 11.3764C11.0578 11.2648 11.0016 11.1578 10.9359 11.0555C10.8656 10.9532 10.7859 10.8602 10.7016 10.7719C10.6125 10.6882 10.5188 10.6091 10.4156 10.5394C10.3125 10.4743 10.2047 10.4185 10.0922 10.372C9.97969 10.3208 9.8625 10.2883 9.74062 10.265C9.49687 10.2139 9.24844 10.2139 9.00938 10.265C8.8875 10.2883 8.77031 10.3208 8.65781 10.372C8.54531 10.4185 8.4375 10.4743 8.33437 10.5394C8.23125 10.6091 8.1375 10.6882 8.04844 10.7719C7.96406 10.8602 7.88437 10.9532 7.81406 11.0555C7.74844 11.1578 7.69219 11.2648 7.64531 11.3764C7.59844 11.488 7.56094 11.6042 7.5375 11.7251C7.51406 11.846 7.5 11.9669 7.5 12.0878C7.5 12.5761 7.70156 13.055 8.04844 13.4038C8.1375 13.4875 8.23125 13.5665 8.33437 13.6363Z" fill="#F5BF4F"/>
<path d="M14.0625 17.668H9.375C8.33906 17.668 7.5 18.5003 7.5 19.528C7.5 20.5556 8.33906 21.388 9.375 21.388H14.0625C15.0984 21.388 15.9375 20.5556 15.9375 19.528C15.9375 18.5003 15.0984 17.668 14.0625 17.668Z" fill="#F5BF4F"/>
<path d="M22.3547 18.8165C22.3078 18.7049 22.2516 18.5979 22.1859 18.4956C22.1156 18.3933 22.0359 18.2957 21.9516 18.212C21.5156 17.7795 20.8688 17.5842 20.2594 17.7051C20.1375 17.7284 20.0203 17.7609 19.9078 17.8121C19.7953 17.8586 19.6875 17.9144 19.5844 17.9795C19.4812 18.0492 19.3875 18.1283 19.2984 18.212C19.2141 18.3003 19.1344 18.3933 19.0641 18.4956C18.9984 18.5979 18.9422 18.7049 18.8953 18.8165C18.8438 18.9281 18.8109 19.0443 18.7875 19.1652C18.7641 19.2861 18.75 19.407 18.75 19.5279C18.75 20.0162 18.9516 20.4951 19.2984 20.8439C19.3828 20.9276 19.4812 21.0066 19.5844 21.0764C19.6875 21.1415 19.7953 21.1973 19.9078 21.2438C20.0203 21.2903 20.1375 21.3275 20.2594 21.3507C20.3813 21.374 20.5031 21.3879 20.625 21.3879C21.1219 21.3879 21.6047 21.188 21.9516 20.8439C22.0359 20.7602 22.1156 20.6625 22.1859 20.5602C22.2516 20.4579 22.3078 20.351 22.3547 20.2394C22.4016 20.1278 22.4391 20.0115 22.4625 19.8906C22.4859 19.7744 22.5 19.6488 22.5 19.5279C22.5 19.407 22.4859 19.2861 22.4625 19.1652C22.4391 19.0443 22.4016 18.9281 22.3547 18.8165Z" fill="#F5BF4F"/>
</svg>
