<svg width="32" height="32" viewBox="0 0 32 32" fill="none" xmlns="http://www.w3.org/2000/svg">
<rect width="32" height="32" rx="8" fill="#E8E6FE"/>
<g clip-path="url(#clip0_2822_13551)">
<path d="M16 18C17.1046 18 18 17.1046 18 16C18 14.8954 17.1046 14 16 14C14.8954 14 14 14.8954 14 16C14 17.1046 14.8954 18 16 18Z" stroke="#0D027D" stroke-width="2" stroke-linecap="round" stroke-linejoin="round"/>
<path d="M20.9333 18C20.8445 18.2011 20.8181 18.4241 20.8573 18.6404C20.8965 18.8567 20.9996 19.0562 21.1533 19.2133L21.1933 19.2533C21.3173 19.3772 21.4156 19.5242 21.4827 19.6861C21.5498 19.8479 21.5843 20.0215 21.5843 20.1967C21.5843 20.3719 21.5498 20.5454 21.4827 20.7073C21.4156 20.8691 21.3173 21.0162 21.1933 21.14C21.0695 21.264 20.9224 21.3623 20.7605 21.4294C20.5987 21.4965 20.4252 21.5311 20.25 21.5311C20.0747 21.5311 19.9012 21.4965 19.7394 21.4294C19.5775 21.3623 19.4305 21.264 19.3066 21.14L19.2666 21.1C19.1095 20.9463 18.9099 20.8432 18.6937 20.804C18.4774 20.7648 18.2544 20.7913 18.0533 20.88C17.8561 20.9645 17.6879 21.1048 17.5695 21.2837C17.451 21.4626 17.3875 21.6721 17.3866 21.8867V22C17.3866 22.3536 17.2461 22.6928 16.9961 22.9428C16.7461 23.1929 16.4069 23.3333 16.0533 23.3333C15.6997 23.3333 15.3605 23.1929 15.1105 22.9428C14.8604 22.6928 14.72 22.3536 14.72 22V21.94C14.7148 21.7193 14.6434 21.5053 14.515 21.3258C14.3866 21.1463 14.2071 21.0095 14 20.9333C13.7989 20.8446 13.5758 20.8181 13.3596 20.8573C13.1433 20.8965 12.9437 20.9996 12.7866 21.1533L12.7466 21.1933C12.6228 21.3173 12.4757 21.4157 12.3139 21.4828C12.152 21.5498 11.9785 21.5844 11.8033 21.5844C11.6281 21.5844 11.4546 21.5498 11.2927 21.4828C11.1308 21.4157 10.9838 21.3173 10.86 21.1933C10.736 21.0695 10.6376 20.9225 10.5705 20.7606C10.5034 20.5987 10.4689 20.4252 10.4689 20.25C10.4689 20.0748 10.5034 19.9013 10.5705 19.7394C10.6376 19.5776 10.736 19.4305 10.86 19.3067L10.9 19.2667C11.0537 19.1096 11.1567 18.91 11.196 18.6937C11.2352 18.4775 11.2087 18.2544 11.12 18.0533C11.0355 17.8562 10.8951 17.688 10.7163 17.5695C10.5374 17.4511 10.3278 17.3875 10.1133 17.3867H9.99996C9.64634 17.3867 9.3072 17.2462 9.05715 16.9961C8.8071 16.7461 8.66663 16.407 8.66663 16.0533C8.66663 15.6997 8.8071 15.3606 9.05715 15.1105C9.3072 14.8605 9.64634 14.72 9.99996 14.72H10.06C10.2806 14.7148 10.4946 14.6434 10.6742 14.515C10.8537 14.3866 10.9904 14.2072 11.0666 14C11.1554 13.7989 11.1818 13.5759 11.1426 13.3596C11.1034 13.1433 11.0003 12.9438 10.8466 12.7867L10.8066 12.7467C10.6827 12.6228 10.5843 12.4758 10.5172 12.3139C10.4501 12.1521 10.4156 11.9786 10.4156 11.8033C10.4156 11.6281 10.4501 11.4546 10.5172 11.2928C10.5843 11.1309 10.6827 10.9838 10.8066 10.86C10.9305 10.736 11.0775 10.6377 11.2394 10.5706C11.4012 10.5035 11.5747 10.469 11.75 10.469C11.9252 10.469 12.0987 10.5035 12.2605 10.5706C12.4224 10.6377 12.5695 10.736 12.6933 10.86L12.7333 10.9C12.8904 11.0537 13.09 11.1568 13.3062 11.196C13.5225 11.2352 13.7455 11.2087 13.9466 11.12H14C14.1971 11.0355 14.3653 10.8952 14.4838 10.7163C14.6022 10.5375 14.6658 10.3279 14.6666 10.1133V10C14.6666 9.64638 14.8071 9.30724 15.0572 9.0572C15.3072 8.80715 15.6463 8.66667 16 8.66667C16.3536 8.66667 16.6927 8.80715 16.9428 9.0572C17.1928 9.30724 17.3333 9.64638 17.3333 10V10.06C17.3341 10.2745 17.3977 10.4841 17.5162 10.663C17.6346 10.8418 17.8028 10.9822 18 11.0667C18.201 11.1554 18.4241 11.1819 18.6404 11.1427C18.8566 11.1035 19.0562 11.0004 19.2133 10.8467L19.2533 10.8067C19.3771 10.6827 19.5242 10.5844 19.686 10.5173C19.8479 10.4502 20.0214 10.4156 20.1966 10.4156C20.3718 10.4156 20.5453 10.4502 20.7072 10.5173C20.8691 10.5844 21.0161 10.6827 21.14 10.8067C21.2639 10.9305 21.3623 11.0776 21.4294 11.2394C21.4965 11.4013 21.531 11.5748 21.531 11.75C21.531 11.9252 21.4965 12.0987 21.4294 12.2606C21.3623 12.4225 21.2639 12.5695 21.14 12.6933L21.1 12.7333C20.9463 12.8905 20.8432 13.09 20.804 13.3063C20.7647 13.5225 20.7912 13.7456 20.88 13.9467V14C20.9645 14.1972 21.1048 14.3653 21.2836 14.4838C21.4625 14.6023 21.6721 14.6658 21.8866 14.6667H22C22.3536 14.6667 22.6927 14.8071 22.9428 15.0572C23.1928 15.3072 23.3333 15.6464 23.3333 16C23.3333 16.3536 23.1928 16.6928 22.9428 16.9428C22.6927 17.1929 22.3536 17.3333 22 17.3333H21.94C21.7254 17.3342 21.5158 17.3978 21.337 17.5162C21.1581 17.6347 21.0178 17.8028 20.9333 18V18Z" stroke="#0D027D" stroke-width="2" stroke-linecap="round" stroke-linejoin="round"/>
</g>
<defs>
<clipPath id="clip0_2822_13551">
<rect width="16" height="16" fill="white" transform="translate(8 8)"/>
</clipPath>
</defs>
</svg>
