<svg width="16" height="18" viewBox="0 0 16 18" fill="none" xmlns="http://www.w3.org/2000/svg">
<path d="M6 13L7.16667 11.7916L5.375 9.99998L7.16667 8.20831L6 6.99998L3 9.99998L6 13ZM10 13L13 9.99998L10 6.99998L8.83333 8.20831L10.625 9.99998L8.83333 11.7916L10 13ZM2.16667 17.5C1.70833 17.5 1.31597 17.3368 0.989583 17.0104C0.663194 16.684 0.5 16.2916 0.5 15.8333V4.16665C0.5 3.70831 0.663194 3.31595 0.989583 2.98956C1.31597 2.66317 1.70833 2.49998 2.16667 2.49998H5.66667C5.84722 1.99998 6.14931 1.5972 6.57292 1.29165C6.99653 0.986091 7.47222 0.833313 8 0.833313C8.52778 0.833313 9.00347 0.986091 9.42708 1.29165C9.85069 1.5972 10.1528 1.99998 10.3333 2.49998H13.8333C14.2917 2.49998 14.684 2.66317 15.0104 2.98956C15.3368 3.31595 15.5 3.70831 15.5 4.16665V15.8333C15.5 16.2916 15.3368 16.684 15.0104 17.0104C14.684 17.3368 14.2917 17.5 13.8333 17.5H2.16667ZM2.16667 15.8333H13.8333V4.16665H2.16667V15.8333ZM8 3.54165C8.18056 3.54165 8.32986 3.48262 8.44792 3.36456C8.56597 3.24651 8.625 3.0972 8.625 2.91665C8.625 2.73609 8.56597 2.58679 8.44792 2.46873C8.32986 2.35067 8.18056 2.29165 8 2.29165C7.81944 2.29165 7.67014 2.35067 7.55208 2.46873C7.43403 2.58679 7.375 2.73609 7.375 2.91665C7.375 3.0972 7.43403 3.24651 7.55208 3.36456C7.67014 3.48262 7.81944 3.54165 8 3.54165Z" fill="#5F6368"/>
</svg>
