<?xml version="1.0" encoding="UTF-8"?><svg id="a" xmlns="http://www.w3.org/2000/svg" viewBox="0 0 258.44 296.12"><defs><style>.b{fill:#f4cd98;}.c{fill:#eb9973;}.d{fill:#eabc47;}</style></defs><path class="c" d="M77.95,286.13l.54,2.59c-3.43,.04-6.85,1.8-10.3,.11,.29-.59-.14-.69-.55-.8-.21-.01-.41-.08-.59-.19-.73,.12-1.46,.23-2.19,.35-.21-.15-.42-.32-.71-.22-.15,.09-.29,.2-.42,.31l.02-.03c-.13,.19-.3,.24-.51,.14-.55,.17-1.11,.35-1.66,.52-.21,.16-.4,.33-.63,.45-.32,0-.63-.02-.95-.03h.01l-.51-1c-.08-.31-.24-.59-.4-.86-.4-.33-.78-.73-1.3-.17-.85,.4-8.04-3.77-7.95-5.08,.13-1.82-2.03-.82-1.89-2.11,3.88,.22,7.77-.75,11.6,1.41,3.57,2.01,7.81,.38,11.73,.8,1.13,.12,2.25,.35,3.38,.53,.85,1.33,1.88,2.48,3.27,3.27Z"/><g><path class="b" d="M209,65.97c-5.19-1.41-6.88-7.13-12.61-8.47-4.8-1.12-8.48-6.34-13.18-8.68-9.15-4.54-18.61-8.47-28.05-12.41-9.4-3.93-18.93-7.53-28.38-11.32-7-2.81-13.51-6.73-21.52-6.94-2.85-.08-5.75,2.05-7.53,.98-2.47-1.49-4.72-1.55-7.25-2.05-2.56-.5-6.28-.39-7.66-4.01-.55,.33-1.23,2.33-2.66,.42l-.04,.02v-.03c-.17,.02-.36,.04-.55,.06h0c-.18,.16-.37,.32-.55,.49h0c-.22-.16-.43-.33-.58-.52-.2-.18-.41-.37-.61-.55h0l-1.03-.04c-.15-.17-.31-.34-.48-.5-.18,.02-.37,.03-.55,.05-.32,.23-.64,.46-.97,.69-.23-.59-.45-1.18-.68-1.78h0c-2.17-.67-4.51,1.59-6.57-.3-1.4-1.28-2.61-3.24-4.35-.41-.2-.13-.39-.27-.57-.43-3.54-.56-6.01-4.87-10.01-3.35-10.83,4.13-18.03,12.82-25.44,21.07-5.94,6.61-11.36,13.71-15.49,21.65-2.4,4.61-3.95,9.41-4.83,14.67-.87,5.18,2.03,9.57,1.79,13.97-.46,8.19,2.44,15.1,5.59,22.01,1.27,2.8,2.51,6.63,6.75,6.99-1.63,2.97,23.58,30.96,28.24,31.09,.38,.74-1.71,.81-.4,1.99,5.72,5.17,11.34,10.44,16.96,15.72,4.1,3.86,7.72,8.41,12.35,11.47,3.55,2.35,8.11,3.31,11.71,5.94,.22-.21,.44-.42,.66-.63h0c0-.33,0-.65,.01-.97h0c.37-.18,.73-.37,1.1-.55h0c.18-.12,.36-.12,.54,.02,0,0-.02-.02-.03-.03l.05,.04s-.01,0-.02-.01c.16,.17,.33,.33,.51,.48l.6,2.13-.07,.18c5.47,1.08,10.95,.83,16.34-.31,5.18-1.1,8.6-5.33,12.97-7.87,4.95-2.88,10.64-4.65,15.23-7.98,5.03-3.65,7.98-9.54,13.86-12.76,7.75-4.23,13.43-11.35,20.63-16.59,7.22-5.26,13.94-11.55,20.36-17.88,1.41-1.39,7.26-1.55,4.3-6.36-.06-.17-.05-.34,.02-.51h0c.33-.37,.66-.75,.99-1.12,.18-.17,.37-.33,.57-.48,4.19-.88,1.56-7.14,7.04-7.98,5-.77,4.91-7.04,7.01-10.91,2.6-4.78-.04-16.44-3.5-17.38Zm-179.38-2.11c-.11-.48,1.26-1.85,1.54-1.74,1.35,.51,2.55,1.39,3.64,2.04-.3,1.53-.82,2.25-1.93,2.08-1.47-.23-2.91-.82-3.25-2.37Zm6.77,16.3c-1.56-.74-3.27-1.42-4.46-2.6-.42-.42,1.01-1.43,2.19-1.54,1.69,.28,2.81,1.37,3.33,3.01,.08,.25-.91,1.2-1.07,1.13Zm11.35-16.16c-1.27-.09-2.45-.66-2.5-2.3-.08-2.6,2.56-1.53,3.68-2.61,.29-.28,1.87,.76,2.27,.94-.96,2.86-1.76,4.09-3.45,3.97Zm12.65-12.2c-1.36-.16-2.17-1.47-2.07-3.04,.11-.86,.1-2.24,1.31-1.76,1.32,.53,2.93,1.56,3.34,2.75,.39,1.12-1.49,2.18-2.58,2.04Zm7.16-1.55s0-.03,.01-.05c-.06,.13-.56,1.1-1.87,1.21-.53,.04-1.14-.91-1.72-1.41,.99-.83,1.91-1.77,3-2.44,.42-.26,1.39-.15,.58,2.64,.01-.03,.01-.03-.01,.05Zm3.42-4.46c-2.95-.23-.31-3.14-1.81-3.6-.23-1.43-.16-2.65,1.02-2.43,2.5,.46,2.21,2.99,2.76,4.71,.48,1.5-1.07,1.38-1.96,1.32Zm13.79,80.29c-.63,1.11-1.55,2.28-2.65,2.83-.81,.4-.87-.83-.83-1.52,.08-1.46,.23-2.9,2.5-3.26,.3,.55,1.2,1.56,.98,1.95Zm9.97-51c-.02,.06-.12,.09-.18,.13-.04-.07-.13-.19-.12-.21,.08-.07,.18-.12,.27-.18,.01,.09,.05,.18,.02,.25Zm1.55-27.63c-1.38-.71-2.81-1.45-3.93-2.49-.29-.27,.78-.96,1.76-.6,1.02,.55,3.21-.48,3.26,1.92,0,.4-.95,1.24-1.1,1.17Zm6.76,35.16s-.03,.08-.05,.12c-.06,.36-.11,.73-.17,1.09-.07-.05-.22-.12-.21-.14,.12-.32,.25-.64,.38-.95l.02-.15h0l.1-.02,.54-.37,.14,.22c-.23,.05-.45,.1-.68,.15l-.08,.05Zm1.63,1.43c-.22,0-.49-.17-.65-.34-.06-.07,.1-.35,.18-.61l.82,.4c-.12,.2-.23,.55-.36,.56Zm-2.45-35.25c-.42,0-1.24-.74-1.18-.94,.52-1.81,2.29-2.02,3.91-2.87,.24,.43,.73,1.03,.63,1.15-.91,1.14-1.61,2.67-3.36,2.66Zm2.11-5.4c-.89-.03-1.53-.54-1.19-1.32,.61-1.41,1.24-2.96,2.98-3.37,.14-.03,.49,.84,.61,1.04-.68,1.65,.05,3.74-2.4,3.65Zm5.06,76.05c-2.09-.37-1.35-2.66-2.37-3.82-.04-.05,.56-.66,.86-1.01,1.95,.65,2.04,2.37,2.64,3.67,.09,.19-.81,1.21-1.13,1.15Zm12.04-80.45c-3.39,1.82-.38,4.51-.88,6.72-.28,1.23-.72,2.04-1.86,2.34-.54,.14-1.46,.15-1.71-.18-.69-.86-1.06-2.04-.2-2.98,1.82-1.99,0-3.91-.94-4.5-1.25-.78-1.48,1.47-2.13,2.38-1.37,1.93-4.91,.31-5.84,3.29,.26-.69,.34-1.54,.81-2.03,2.55-2.66,3.1-5-.61-7.16-.67-.39-.76-1.97,.22-1.85,1.5,.18,3.18-.68,4.57,.74,1.73,1.76,3.4,4.05,6.45,2.14,.42-.26,1.18-.19,1.7-.03,.25,.08,.48,1.08,.42,1.11Zm-.4-2.07c-.81-.94-1.22-1.35-1.55-1.81-1.76-2.45-.27-4.4,1.08-6.31,.21-.3,1.1-.51,1.34-.33,.59,.45,.99,1.16,1.46,1.76-4.9,.28-.8,4.4-2.33,6.68Zm12.1,110.75c-.74,.21-2.08-.78-1.55-1.24,2.66-2.31-3.52-5.01,.16-6.3,1.16-.41,3.56,2.7,4.76,3.69-.48,3.18-2.06,3.48-3.37,3.86Zm12.66-31.43c-.46,.1-1.61-.71-1.57-.88,.37-1.51,1.14-2.78,2.79-3,.95-.32,1.25,.13,1.25,.89,0,1.67-.98,2.66-2.48,3Zm11.57-10.52c-.72-.2-1.51-.4-2.22-.29-.28,.04-.54,.94-.58,1.47-.04,.53,.22,1.08,.35,1.63-.88,.03-1.8,.21-2.62,0-.27-.07-.3-1.12-.41-1.63,.2-3.63,3.14-4.82,5.33-6.57,.21-.17,1.25,.18,1.27,.37,.25,1.93,.37,3.88,.53,5.82-.55-.27-1.07-.63-1.64-.79Zm16.56-49.9c-.53-.49-.95-1.1-1.44-1.67-2.81,1.95-3.37-.48-4.41-1.77-.06-.07,.96-1.22,1.04-1.17,2.1,1.32,5.13,1.27,6.28,3.91,.27,.62-.39,1.72-1.47,.71Zm4.27,23.45c-1.32-.03-1.56-1-1.55-2.35,.6-1.1-.23-3.69,1.71-3.69,1.68,0,.99,2.52,1.46,3.87,.38,1.1-.13,2.2-1.62,2.16Zm10.44,14.12c-2.23-.18-1.98-2.16-2.27-3.71-.16-.83-.16-1.46,1.01-1.44,1.27,1.01,3.82,.61,3.91,3.07,.06,1.63-1.39,2.18-2.64,2.08Zm8.24-.3c-.17,.08-1.07-.74-1-.97,.72-2.52,2.74-3.87,4.9-5.02,.13-.07,.55,.4,.67,.51-.57,2.86-2.29,4.45-4.58,5.48Z"/><g><path class="c" d="M41.42,210.49l.35-.17c-.13,.03-.25,.08-.35,.17Z"/><path class="c" d="M103.36,235.69c-5.74-9.51-14.55-16.4-21.35-25.03-3.75-4.76-8.85-8.45-12.65-13.17-7.17-8.93-14.74-17.4-23.69-24.58-6.21-4.98-12.53-9.82-18.69-14.86-2.28-1.87-11.98-1.34-12.23,1.05-.34,3.21,.71,6.59,.28,9.77-1.69,12.52,1.99,24.51,3.3,36.71,.99,9.17,2.26,18.36,4.19,27.38,1.38,6.43,4.63,12.46,5.97,18.89,.94,4.46,5.44,6.49,5.92,10.88h0c.17,0,.34,.01,.52,.02h0c1.46,1.22,.39,4.51,2.7,4.5,4.42-.03,3.06,3.95,4.56,5.86,1.87,2.39,2.06,6.1,5.77,7.01,2.61,.76,5.28,1.08,8,1.04,.64,0,1.28,.13,1.81,.5,2.2,1.58,4.72,1.63,7.28,1.6,2.9-.03,5.79-.07,8.71,.06,.33,0,.62-.01,.89-.01,0-.15,0-.28,0-.44,1.15-.53,2.56-1.12,3.33,.09,.47,.74,0,2.09-.06,3.17-.15,.02-.27,.02-.41,.03v.06c.13,.9,.15,1.85,.95,2.5,6.55-2.5,13.65-2.76,20.05-6.58,4.09-2.44,8.34-4.78,12.33-7.48,6.39-4.33,5.11-10.95,4.44-16.89-.99-8.77-7.63-14.89-11.97-22.08Zm-60.03-41.89c1.82,.15,2.61,.91,2.77,2.24,.11,.93-.51,1.45-1.31,1.24-1.05-.28-2.63-.18-2.66-1.74-.01-.65,.89-1.31,1.2-1.73Zm-9-2.92c-.13,.31-2.14-1.7-.12-1.51,1.36,.13,2.49,2.71,3.72,4.2-1.97,1.35-5.07,4.25-5.72,3.78-3.53-2.55,1.37-3.24,2.12-6.46Zm-1.27,20.78c-1.44-1.36-1.54-6,1.06-7.66,2.69-1.72,4.3,1.89,5.3,3.45,.91,1.43,2.35,1.39,3.1,2.5h0c1.56,3.74,2.97,3.13,4.43-.1,.34-.76,.95-1.7,2.08-1.2,.43,.19,.92,.67,1.02,1.11,.25,1.09-.53,1.52-1.42,1.96-.57,.29-.94,.99-1.4,1.51,.55,.2,1.16,.3,1.62,.63,.44,.31,.95,.81,1.01,1.28,.04,.36-.75,1.2-.85,1.15-1.71-.82-4.05,.13-5.32-1.71-.88-1.27-1.51-2.71-2.25-4.08-1.86,6.49-6.25,3.16-8.36,1.17Zm7.23,10.4c-.93-1.52-1.94-3.14-2.86-4.81-.06-.1,.7-.93,.93-.87,1.37,.37,2.69,.9,4.03,1.37-2.23,.74,.69,3.72-2.1,4.3Zm4.35,40.6c-1.23-.06-1.98-.81-2.07-2.04-.08-1.08,.57-1.62,1.63-1.68,1.28-.07,2.08,.41,2.1,1.8,.01,1.13-.39,1.98-1.67,1.92Zm7.1-39.56c-1.21-2.8-3.92,.13-4.65-1.87-.53-1.46,1.43-1.96,2.54-2.16,1.5-.26,2.43,.98,3.03,2.21,.13,.27-.42,.86-.93,1.82Zm3.81,54.84c-1.12,.06-2.06-.24-2.06-1.55,0-1.15,.38-2.17,1.82-2.21,1.2-.04,1.87,.53,1.91,1.76,.03,1.16-.39,1.94-1.67,2Zm8.23-60.41c-.1,1.44,.43,3.3-2.02,3.26-2.05-.03-2.31-1.87-2.19-3.08,.14-1.5,.43-3.77,2.52-3.75,2.23,.02,1.56,2.14,1.69,3.57Zm20.18,2.87c-.76,2.36-1.23,3.82-1.81,5.65-.93-1.54-1.5-3.38-3.79-2.59-.08,.03-.66-.75-.6-1.08,.18-.92,.56-1.79,.87-2.68,.36,.29,.76,.55,1.09,.89,1.05,1.06,2.02,2.39,4.24-.18Zm-3.96,19.84c-.05,1.06-.61,1.86-1.88,1.79-1.21-.02-1.78-.66-1.79-1.85-.01-1.34,.65-1.97,1.98-1.92,1.26,.06,1.74,.93,1.69,1.98Zm-5.86-22.97c-.43-.82-.25-2.37,.28-3.17,.4-.61,1.13,.44,1.75,.91,2.04,1.57-1.48,1.15-.86,1.84,2.5,2.07,3.87-2.22,6.04-.24-.48,.31-.95,.88-1.44,.9-1.95,.05-4.13,2.84-5.76-.24Zm1.88,31.68c-.02-1.57,1.57-1.56,2.63-1.73,1.39-.22,2.25,.89,2.39,2.02,.2,1.56-1.19,1.46-2.26,1.52-1.33,0-2.75-.17-2.77-1.81Zm5.53,13.65c-.13,.08-.86-.86-1.31-1.32,1.34-1.14,2.56-2.48,4.06-3.35,.78-.45,1.68,.35,1.79,1.64-1.46,1.01-2.96,2.1-4.54,3.04Zm12.32,6.09c-1.05-.04-1.74-.55-1.67-1.64,.07-1.2,.77-2.2,2-1.96,.75,.15,1.33,1.13,1.76,1.52-.14,1.79-.97,2.12-2.08,2.07Z"/></g><path class="d" d="M251.27,134.35c-1.1-2.82,2.87-6.84-2.12-8.66-.66,.04-1.24,.27-1.79,.58-.41,.39-.82,.77-1.26,1.12-.35,.28-1,.29-1.51,.26-.22-.01-.65-.54-.6-.64,.81-1.57,1.59-3.18,2.61-4.62,.27-.39,1.04-.43,1.68-.56-1.05-3.19-3.19-4.99-8.08-3.19-.86,1.73-3.44,1.45-6.32-.06-.27-.14-.81,.21-1.22,.35-3.62,1.23-7.32,2.63-10.8,3.8-5.65,1.9-10.72,4.26-15.79,7.3-7.56,4.55-13.37,10.87-19.18,17.22-5.42,5.93-10.42,12.23-15.7,18.28-3.43,3.93-6.72,8.06-10.62,11.49-7.52,6.62-17.18,11.27-19.47,22.42-.1,.49-1.02,.81-1.55,1.22-.37,.1-.65,.34-.9,.62-5.22,1.67-9.27,4.12-9.68,10.51-.52,8.09,5.17,13.4,8.66,19.47,2.54,4.41,4.6,9.83,11.26,11.57,5.2,1.36,10.01,2.16,14.97,.67,3.92-1.18,7.21-3.56,9.6-7.19,2.65-4.02,8.27-2.6,11.73-6.99,5.92-7.53,13.65-13.73,21.01-20.02,3.45-2.95,5.49-7.04,9.32-9.78,1.75-1.25,5.85-1.97,5.28-4.15-1.35-5.18,3.79-6.09,5.43-9.05,5.31-9.57,16.71-14.57,20.47-25.81,1.24-3.7,5.07-6.48,3.07-11.29-.32-.77-1.08-1.66-1.33-2.74-1.12-4.72,4.57-7.63,2.82-12.14Zm-91.54,49.13c-.5,1.72-2.53,3-4.18,4.78-.39-.8-.72-1.29-.65-1.36,1.59-1.52-2.1-4.73,1.55-5.27,.8-.12,3.73,.31,3.28,1.85Zm8.45,7.82c-.06,0-.11-.11-.16-.17,.06-.05,.13-.15,.18-.15,.06,0,.11,.11,.16,.17-.06,.05-.13,.15-.18,.15Zm-.22-1.1l-.75-.08c.25-.08,.5-.16,.75-.23h0l.41,.15-.41,.16Zm60.55-32.47c-.86,.33-1.7,.53-1.48,1.83,.12,.72-.17,1.52-.28,2.28-.73-.54-1.45-1.07-2.22-1.64,.05,.88,.1,1.78,.15,2.68-.99-3.38-2.88-5.82-6.22-6.86-1.03-.32-1.12-.65-.96-1.59,.38-2.21-.54-5.04,2.21-6.14,1.34-.54,1.84,.86,1.63,2.18,3.7-1.32,3.2,4.78,6.93,3.82,2.09-.54,.43,1.74,1.28,2.56,.75,.72-.57,.7-1.05,.88Zm14.93-37.48l.08,.2-.19-.02,.11-.18Zm-.02,3.58l-.16-.18c.06-.05,.13-.15,.18-.15,.06,0,.11,.11,.16,.17l-.19,.16Z"/></g></svg>