<svg width="616" height="447" viewBox="0 0 616 447" fill="none" xmlns="http://www.w3.org/2000/svg">
<path d="M263.461 247.194L263.948 249.493C260.906 249.493 257.89 251.085 254.839 249.59C255.095 249.069 254.706 248.98 254.353 248.874C254.167 248.867 253.986 248.809 253.831 248.706L251.894 249.024C251.708 248.892 251.523 248.741 251.266 248.821C251.135 248.902 251.011 248.994 250.895 249.095C250.874 249.133 250.845 249.167 250.811 249.194C250.777 249.22 250.737 249.24 250.695 249.252C250.653 249.263 250.609 249.266 250.566 249.261C250.523 249.255 250.481 249.241 250.444 249.219L248.976 249.679C248.796 249.821 248.607 249.951 248.41 250.068H247.579L247.128 249.183C247.048 248.914 246.929 248.658 246.774 248.423C246.42 248.131 246.075 247.777 245.624 248.273C244.873 248.626 238.549 244.939 238.549 243.78C238.664 242.171 236.781 243.055 236.887 241.914C240.318 242.109 243.758 241.251 247.145 243.161C250.302 244.93 254.052 243.497 257.51 243.869C258.518 243.975 259.508 244.178 260.499 244.346C261.234 245.527 262.252 246.506 263.461 247.194Z" fill="#EB9973"/>
<path d="M379.354 52.497C374.756 51.2501 373.27 46.1916 368.203 45.0066C363.958 44.0162 360.704 39.3999 356.538 37.3394C348.455 33.3156 340.081 29.8402 331.777 26.3559C323.473 22.8716 315.036 19.6968 306.679 16.3451C300.489 13.8601 294.732 10.3935 287.648 10.199C285.137 10.1371 282.572 12.0207 280.989 11.0833C278.814 9.76563 276.824 9.71257 274.578 9.2704C272.331 8.82823 269.024 8.92551 267.804 5.73304C267.317 6.02487 266.716 7.79355 265.451 6.10446L264.903 6.13984L264.417 6.56432C264.226 6.43446 264.053 6.27982 263.904 6.10446L263.355 5.61807H262.471C262.342 5.46213 262.203 5.31445 262.055 5.1759L261.569 5.22012L260.685 5.83032C260.49 5.30856 260.287 4.78679 260.083 4.25619C258.164 3.66368 256.095 5.66229 254.273 3.99089C253.026 2.85893 251.956 1.12562 250.417 3.62831C250.24 3.51443 250.072 3.38732 249.913 3.24804C246.783 2.75281 244.607 -1.0587 241.07 0.285499C231.501 3.93783 225.152 11.6228 218.572 18.9186C213.223 24.6697 208.62 31.0728 204.874 37.9761C202.761 42.0556 201.316 46.4476 200.594 50.9848C199.833 55.5657 202.362 59.4479 202.177 63.3655C201.77 70.6083 204.334 76.7191 207.12 82.821C208.243 85.2972 209.34 88.6842 213.089 89.0114C211.639 91.6645 233.942 116.426 238.063 116.506C238.39 117.16 236.551 117.222 237.701 118.274C242.759 122.846 247.729 127.507 252.734 132.176C256.36 135.581 259.561 139.613 263.647 142.311C266.795 144.389 270.828 145.238 274.003 147.564L274.586 147.015C274.586 146.724 274.586 146.441 274.586 146.131L275.559 145.645C275.625 145.587 275.71 145.555 275.798 145.555C275.886 145.555 275.971 145.587 276.037 145.645C276.176 145.8 276.327 145.945 276.488 146.078L277.018 147.962L276.956 148.121C281.742 149.009 286.659 148.913 291.407 147.838C295.996 146.874 299.021 143.133 302.903 140.878C307.325 138.331 312.312 136.766 316.363 133.803C320.784 130.584 323.437 125.367 328.629 122.528C335.482 118.778 340.505 112.491 346.872 107.857C353.255 103.033 359.273 97.7447 364.878 92.0359C366.116 90.8066 371.289 90.6651 368.671 86.4203C368.618 86.2747 368.618 86.1149 368.671 85.9693L369.556 84.9788C369.716 84.8279 369.884 84.6862 370.06 84.5543C373.765 83.7761 371.439 78.249 376.25 77.4796C380.672 76.7898 380.592 71.2892 382.441 67.8315C384.749 63.622 382.414 53.3283 379.354 52.497ZM220.721 50.631C220.624 50.2065 221.836 48.995 222.083 49.0834C223.207 49.576 224.284 50.1679 225.302 50.8521C225.046 52.2052 224.577 52.8419 223.595 52.6915C222.295 52.5235 221.022 52.0018 220.721 50.631ZM226.708 65.0458C225.276 64.4982 223.943 63.7184 222.764 62.7377C222.393 62.3662 223.648 61.4819 224.71 61.3846C225.406 61.4911 226.056 61.7991 226.579 62.2705C227.102 62.742 227.476 63.3563 227.654 64.0376C227.725 64.2764 226.85 65.1165 226.708 65.0458ZM236.71 50.7548C235.587 50.6752 234.543 50.1712 234.499 48.7209C234.429 46.4216 236.772 47.359 237.754 46.4127C238.01 46.1651 239.407 47.0848 239.761 47.244C238.948 49.7732 238.24 50.861 236.71 50.7548ZM247.897 39.9659C246.694 39.8244 245.987 38.6659 246.066 37.3129C246.164 36.5435 246.155 35.3319 247.225 35.7564C248.295 36.1809 249.816 37.136 250.179 38.1884C250.541 39.2407 248.905 40.0808 247.932 39.9659H247.897ZM254.229 38.5951V38.5509C254.072 38.8481 253.843 39.1015 253.564 39.2883C253.284 39.4752 252.963 39.5895 252.628 39.621C252.16 39.621 251.62 38.8162 251.107 38.3829C251.938 37.5975 252.825 36.8734 253.76 36.2163C254.132 35.9863 254.989 36.0836 254.282 38.5509L254.229 38.5951ZM257.253 34.651C254.645 34.4476 256.988 31.8742 255.653 31.4674C255.449 30.2028 255.511 29.1239 256.537 29.3184C258.757 29.7252 258.5 31.9714 258.978 33.4837C259.447 34.8102 258.076 34.7129 257.289 34.651H257.253ZM269.457 105.655C268.927 106.693 268.115 107.56 267.114 108.157C266.397 108.511 266.344 107.423 266.371 106.813C266.442 105.522 266.574 104.249 268.582 103.93C268.882 104.417 269.678 105.31 269.493 105.655H269.457ZM278.301 60.5533C278.301 60.5533 278.203 60.6329 278.15 60.6683C278.097 60.7037 278.027 60.4914 278.044 60.4826C278.117 60.4195 278.197 60.366 278.283 60.3234C278.297 60.3997 278.294 60.4783 278.274 60.5533H278.301ZM279.671 36.1101C278.417 35.5389 277.248 34.7979 276.196 33.9081C275.939 33.6694 276.895 33.068 277.752 33.3775C278.637 33.8728 280.591 32.9531 280.644 35.0843C280.653 35.438 279.795 36.2074 279.671 36.1101ZM285.65 67.2036V67.3097C285.605 67.6369 285.552 67.9553 285.508 68.2736C285.441 68.2444 285.378 68.2057 285.322 68.1587C285.42 67.8668 285.535 67.5927 285.65 67.2743V67.1417H285.738L286.207 66.8145L286.33 67.0179L285.738 67.1417L285.65 67.2036ZM287.118 68.477C286.895 68.4532 286.689 68.3458 286.543 68.1764C286.481 68.1145 286.631 67.8668 286.702 67.6281L287.436 67.9818C287.303 68.1587 287.197 68.4682 287.118 68.477ZM284.924 37.304C284.562 37.304 283.837 36.6408 283.881 36.4197C284.341 34.819 285.915 34.651 287.339 33.8816C287.551 34.2619 287.984 34.7659 287.896 34.9074C287.118 35.951 286.472 37.304 284.924 37.304ZM286.79 32.5286C286.003 32.5286 285.446 32.051 285.747 31.3612C286.286 30.1143 286.835 28.7082 288.4 28.3722C288.524 28.3722 288.842 29.115 288.939 29.2565C288.32 30.751 288.957 32.5993 286.79 32.5286ZM291.265 99.7385C289.417 99.4201 290.071 97.395 289.169 96.3691C289.397 96.0534 289.652 95.7575 289.93 95.4848C291.654 96.0508 291.698 97.5718 292.264 98.7303C292.335 98.9337 291.539 99.8269 291.265 99.7739V99.7385ZM301.877 28.5933C298.888 30.2028 301.55 32.5816 301.108 34.536C300.86 35.6238 300.462 36.3047 299.454 36.6054C298.977 36.738 298.163 36.738 297.942 36.455C297.585 36.1156 297.369 35.6545 297.336 35.163C297.303 34.6716 297.456 34.1858 297.765 33.802C299.383 32.0333 297.765 30.3442 296.934 29.8313C295.828 29.1415 295.625 31.1225 295.05 31.9361C293.839 33.6428 290.708 32.2102 289.886 34.8455C290.013 34.2168 290.256 33.6172 290.602 33.0769C292.857 30.7157 293.352 28.6552 290.062 26.745C289.461 26.4001 289.381 24.9763 290.257 25.1089C291.575 25.2681 293.06 24.4988 294.298 25.7545C295.828 27.311 297.305 29.3449 300.011 27.6559C300.49 27.4607 301.027 27.4607 301.506 27.6559C301.753 27.7178 301.957 28.6021 301.904 28.6286L301.877 28.5933ZM301.532 26.7627C300.807 25.9314 300.445 25.5688 300.153 25.162C298.596 22.9954 299.923 21.2709 301.108 19.5818C301.265 19.4371 301.456 19.3345 301.663 19.2835C301.87 19.2325 302.087 19.2347 302.293 19.29C302.786 19.7569 303.219 20.2826 303.584 20.8553C299.277 21.1736 302.903 24.7729 301.559 26.798L301.532 26.7627ZM312.233 124.703C311.57 124.889 310.385 124.014 310.853 123.598C313.206 121.555 307.74 119.176 311.004 118.027C312.029 117.664 314.152 120.414 315.213 121.29C314.815 124.137 313.418 124.403 312.259 124.739L312.233 124.703ZM323.429 96.9086C323.157 96.8784 322.894 96.7939 322.655 96.6603C322.417 96.5266 322.208 96.3464 322.04 96.1304C322.367 94.795 323.048 93.6719 324.507 93.4773C325.348 93.2032 325.613 93.5923 325.613 94.2644C325.653 94.9 325.454 95.5276 325.055 96.0236C324.655 96.5196 324.085 96.848 323.455 96.944L323.429 96.9086ZM333.66 87.5965C333.031 87.3762 332.362 87.2918 331.697 87.3489C331.45 87.3489 331.22 88.1801 331.184 88.64C331.22 89.1326 331.324 89.6177 331.494 90.0815C330.725 90.1876 329.945 90.1876 329.177 90.0815C328.938 90.0284 328.92 89.091 328.814 88.64C328.991 85.4387 331.591 84.3775 333.528 82.8299C333.713 82.6796 334.624 82.9891 334.651 83.1571C334.872 84.8639 334.978 86.5883 335.111 88.304C334.658 88.0361 334.181 87.8111 333.687 87.6319L333.66 87.5965ZM348.314 43.4767C347.86 43.0079 347.434 42.5117 347.04 41.991C344.555 43.7597 344.06 41.5665 343.141 40.4257C343.373 40.0323 343.673 39.6822 344.025 39.3911C345.882 40.5495 348.562 40.5142 349.579 42.8488C349.906 43.4325 349.287 44.3964 348.34 43.5121L348.314 43.4767ZM352.117 64.241C350.94 64.241 350.737 63.3567 350.746 62.1717C351.285 61.1989 350.542 58.9085 352.258 58.8996C353.744 58.8996 353.142 61.137 353.549 62.3309C353.656 62.5528 353.7 62.8 353.677 63.0453C353.653 63.2906 353.562 63.5247 353.414 63.7218C353.266 63.919 353.067 64.0717 352.838 64.1633C352.609 64.2549 352.36 64.2818 352.117 64.241ZM361.349 76.7279C359.377 76.5776 359.58 74.8178 359.333 73.447C359.2 72.713 359.191 72.1559 360.217 72.1824C361.349 73.0668 363.595 72.713 363.675 74.8885C363.737 76.33 362.455 76.8164 361.349 76.7279ZM368.636 76.4626C368.486 76.5334 367.69 75.8082 367.752 75.5783C368.388 73.3409 370.175 72.1559 372.094 71.1566C372.209 71.0947 372.571 71.5103 372.686 71.5988C372.49 72.6906 372.013 73.7128 371.303 74.5653C370.593 75.4179 369.674 76.0716 368.636 76.4626Z" fill="#F4CD98"/>
<path d="M231.156 180.293L231.466 180.142C231.351 180.165 231.245 180.217 231.156 180.293Z" fill="#EB9973"/>
<path d="M285.932 202.587C280.856 194.177 273.065 188.084 267.052 180.479C263.735 176.278 259.225 173.015 255.874 168.832C249.533 160.899 242.83 153.418 234.941 147.068C229.45 142.647 223.861 138.384 218.413 133.927C216.388 132.273 207.801 132.742 207.589 134.856C207.297 137.694 208.217 140.683 207.836 143.496C206.342 154.568 209.605 165.171 210.763 175.969C211.581 184.095 212.818 192.174 214.469 200.173C215.689 205.859 218.563 211.192 219.775 216.878C220.597 220.822 224.586 222.618 225.001 226.5H225.461C226.744 227.579 225.806 230.488 227.849 230.479C231.758 230.479 230.564 233.973 231.882 235.662C233.535 237.766 233.703 241.056 236.993 241.852C239.294 242.499 241.679 242.797 244.068 242.736C244.635 242.709 245.196 242.864 245.668 243.179C247.614 244.585 249.842 244.62 252.106 244.593C254.671 244.593 257.236 244.532 259.818 244.647H260.587C260.587 244.514 260.587 244.39 260.587 244.257C261.604 243.78 262.851 243.258 263.532 244.337C263.957 244.991 263.532 246.185 263.479 247.14H263.125V247.193C263.119 247.603 263.194 248.011 263.345 248.392C263.497 248.773 263.723 249.12 264.01 249.413C269.802 247.202 276.072 246.972 281.696 243.585C285.313 241.428 289.072 239.367 292.609 236.97C298.26 233.141 297.128 227.287 296.536 222.034C295.634 214.349 289.77 208.946 285.932 202.587ZM232.872 165.542C234.481 165.684 235.18 166.347 235.322 167.523C235.419 168.354 234.871 168.814 234.163 168.62C233.279 168.372 231.837 168.461 231.811 167.081C231.775 166.506 232.571 165.922 232.845 165.542H232.872ZM224.913 162.96C224.798 163.234 223.029 161.457 224.816 161.625C226.018 161.74 227.009 164.021 228.097 165.339C226.328 166.524 223.622 169.088 223.047 168.673C219.908 166.418 224.223 165.816 224.886 162.96H224.913ZM223.79 181.337C222.516 180.134 222.428 176.031 224.727 174.554C227.026 173.077 228.53 176.225 229.405 177.605C230.281 178.984 231.492 178.834 232.147 179.815C233.526 183.123 234.8 182.583 236.064 179.727C236.365 179.055 236.905 178.224 237.904 178.666C238.11 178.758 238.295 178.893 238.447 179.06C238.6 179.227 238.716 179.424 238.788 179.639C239.009 180.603 238.32 180.983 237.532 181.407C237.028 181.664 236.701 182.292 236.303 182.743C236.799 182.87 237.277 183.057 237.727 183.3C238.154 183.552 238.47 183.956 238.611 184.432C238.656 184.75 237.948 185.493 237.86 185.449C236.347 184.724 234.322 185.564 233.155 183.937C232.418 182.774 231.751 181.57 231.156 180.328C229.511 186.032 225.638 183.096 223.763 181.337H223.79ZM230.184 190.534C229.37 189.181 228.468 187.757 227.654 186.28C227.61 186.192 228.282 185.458 228.486 185.511C229.688 185.838 230.865 186.307 232.023 186.722C230.042 187.377 232.624 190.021 230.157 190.534H230.184ZM234.03 226.438C233.794 226.445 233.558 226.405 233.337 226.319C233.117 226.233 232.915 226.104 232.745 225.939C232.575 225.774 232.44 225.577 232.348 225.359C232.256 225.14 232.209 224.906 232.209 224.669C232.138 223.714 232.713 223.237 233.65 223.192C234.782 223.131 235.49 223.555 235.507 224.775C235.49 225.748 235.136 226.491 234.004 226.438H234.03ZM240.247 191.453C239.177 188.977 236.79 191.568 236.144 189.8C235.667 188.5 237.409 188.031 238.39 187.89C239.717 187.66 240.53 188.774 241.043 189.844C241.22 190.083 240.734 190.613 240.247 191.453ZM243.617 239.951C242.626 240.004 241.795 239.738 241.795 238.58C241.795 237.563 242.131 236.67 243.404 236.626C243.623 236.588 243.848 236.601 244.06 236.664C244.273 236.727 244.468 236.838 244.632 236.989C244.795 237.139 244.921 237.325 245.001 237.532C245.081 237.738 245.113 237.961 245.094 238.182C245.155 239.208 244.784 239.889 243.652 239.951H243.617ZM250.93 186.545C250.842 187.819 251.319 189.464 249.162 189.428C247.393 189.428 247.119 187.775 247.225 186.713C247.349 185.387 247.605 183.379 249.453 183.397C251.302 183.415 250.859 185.272 250.93 186.545ZM268.785 189.083C268.113 191.17 267.697 192.47 267.176 194.08C266.353 192.718 265.849 191.091 263.824 191.789C263.544 191.542 263.359 191.204 263.302 190.834C263.498 190.026 263.756 189.234 264.072 188.464C264.398 188.691 264.711 188.936 265.009 189.198C265.955 190.171 266.822 191.338 268.785 189.066V189.083ZM265.248 206.629C265.267 206.848 265.237 207.07 265.159 207.276C265.081 207.482 264.957 207.668 264.798 207.821C264.638 207.973 264.446 208.087 264.236 208.154C264.026 208.222 263.804 208.242 263.585 208.212C263.367 208.234 263.147 208.206 262.941 208.131C262.736 208.055 262.55 207.935 262.397 207.777C262.245 207.62 262.13 207.43 262.062 207.222C261.993 207.014 261.973 206.793 262.002 206.576C261.99 206.352 262.023 206.129 262.101 205.92C262.179 205.71 262.299 205.519 262.454 205.357C262.609 205.196 262.795 205.069 263.002 204.983C263.208 204.897 263.43 204.855 263.653 204.858C263.877 204.862 264.097 204.912 264.301 205.004C264.504 205.097 264.686 205.23 264.836 205.396C264.986 205.563 265.099 205.758 265.17 205.97C265.241 206.182 265.267 206.406 265.248 206.629ZM260.065 186.289C259.896 185.833 259.83 185.344 259.872 184.859C259.915 184.374 260.066 183.905 260.313 183.485C260.667 182.946 261.312 183.875 261.861 184.29C263.629 185.679 260.552 185.307 261.1 185.926C263.311 187.757 264.523 183.963 266.406 185.714C265.982 185.988 265.522 186.492 265.133 186.501C263.47 186.545 261.533 189.03 260.092 186.298L260.065 186.289ZM261.728 214.314C261.728 212.925 263.116 212.925 264.063 212.784C264.319 212.75 264.58 212.771 264.829 212.843C265.077 212.916 265.308 213.039 265.507 213.205C265.705 213.371 265.867 213.577 265.983 213.809C266.098 214.041 266.164 214.294 266.176 214.552C266.362 215.941 265.124 215.844 264.178 215.897C263.028 215.914 261.772 215.729 261.755 214.322L261.728 214.314ZM266.618 226.376C266.503 226.447 265.858 225.616 265.46 225.209C266.563 224.112 267.765 223.121 269.05 222.246C269.74 221.848 270.536 222.556 270.633 223.696C269.369 224.572 268.051 225.554 266.645 226.385L266.618 226.376ZM277.514 231.762C276.576 231.762 275.975 231.284 276.037 230.32C276.099 229.356 276.718 228.375 277.805 228.552C278.469 228.684 278.99 229.551 279.362 229.896C279.247 231.523 278.522 231.815 277.54 231.771L277.514 231.762Z" fill="#EB9973"/>
<path d="M416.735 112.969C415.771 110.475 419.282 106.92 414.86 105.31C414.303 105.356 413.764 105.532 413.286 105.823C412.924 106.159 412.552 106.504 412.163 106.814C411.755 107.033 411.286 107.114 410.828 107.043C410.633 107.043 410.253 106.557 410.297 106.477C410.978 105.064 411.748 103.697 412.605 102.383C412.844 102.047 413.49 102.003 414.091 101.888C413.163 99.0667 411.27 97.466 406.946 99.0667C406.194 100.597 403.903 100.349 401.365 99.0136C401.127 98.8898 400.649 99.2082 400.287 99.3232C397.085 100.42 393.813 101.658 390.736 102.692C385.86 104.323 381.18 106.488 376.781 109.148C370.095 113.172 364.948 118.761 359.819 124.385C355.026 129.621 350.604 135.192 345.935 140.551C342.902 144.027 339.983 147.679 336.543 150.712C329.893 156.567 321.35 160.679 319.325 170.539C319.237 170.972 318.441 171.264 317.954 171.618C317.642 171.72 317.365 171.911 317.158 172.166C312.542 173.634 308.969 175.81 308.607 181.461C308.147 188.615 313.179 193.311 316.265 198.679C318.503 202.579 320.333 207.372 326.223 208.911C330.822 210.113 335.066 210.821 339.488 209.503C342.989 208.475 346.002 206.221 347.978 203.154C350.321 199.616 355.291 200.854 358.351 196.963C363.586 190.304 370.414 184.821 376.922 179.276C379.973 176.668 381.777 173.086 385.164 170.628C386.703 169.522 390.329 168.859 389.825 166.958C388.631 162.377 393.176 161.572 394.627 158.954C399.323 150.482 409.404 146.069 412.729 136.129C413.826 132.849 417.213 130.39 415.444 126.145C414.977 125.376 414.583 124.565 414.268 123.722C413.251 119.522 418.292 116.948 416.735 112.969ZM335.756 156.407C335.323 157.928 333.519 159.06 332.06 160.643C331.715 159.927 331.423 159.494 331.485 159.432C332.9 158.088 329.628 155.249 332.856 154.771C333.59 154.709 336.181 155.045 335.756 156.407ZM343.229 163.332C343.176 163.332 343.132 163.234 343.087 163.181C343.043 163.128 343.193 163.04 343.247 163.049C343.3 163.058 343.344 163.146 343.397 163.199C343.45 163.252 343.308 163.332 343.255 163.332H343.229ZM343.043 162.359L342.371 162.288L343.034 162.085L343.406 162.217L343.043 162.359ZM396.59 133.636C395.829 133.927 395.087 134.104 395.281 135.263C395.296 135.943 395.213 136.622 395.034 137.279L393.07 135.82C393.07 136.598 393.159 137.403 393.203 138.199C392.319 135.21 390.656 133.052 387.702 132.132C386.818 131.849 386.712 131.549 386.818 130.726C387.154 128.772 386.349 126.304 388.772 125.296C389.957 124.81 390.408 126.057 390.214 127.224C393.486 126.057 393.044 131.451 396.342 130.602C398.199 130.116 396.731 132.132 397.483 132.857C398.235 133.583 397.041 133.485 396.617 133.636H396.59ZM409.793 100.499L409.864 100.667H409.696L409.793 100.499ZM409.793 103.665L409.643 103.497C409.696 103.497 409.758 103.365 409.811 103.365C409.864 103.365 409.908 103.462 409.952 103.515L409.793 103.665Z" fill="#EABC47"/>
<path d="M32.8956 410.857C25.0943 410.857 19.5466 408.603 16.2528 404.096C12.9589 399.589 11.3119 393.694 11.3119 386.413V358.978H2.3404V345.716L12.2221 344.936L14.3024 327.773H28.9949V344.936H44.7276V358.978H28.9949V386.283C28.9949 389.924 29.7317 392.611 31.2053 394.344C32.7656 395.991 34.8892 396.815 37.5764 396.815C38.7032 396.815 39.8301 396.685 40.9569 396.425C42.0838 396.165 43.0806 395.861 43.9475 395.515L46.8079 408.517C45.0743 409.037 43.0373 409.557 40.6969 410.077C38.3565 410.597 35.7561 410.857 32.8956 410.857ZM91.2724 410.857C85.2047 410.857 79.7005 409.514 74.7596 406.826C69.9055 404.139 66.0481 400.325 63.1877 395.385C60.4139 390.357 59.027 384.289 59.027 377.181C59.027 370.247 60.4572 364.266 63.3177 359.238C66.1782 354.211 69.9055 350.31 74.4996 347.536C79.0937 344.763 83.9478 343.376 89.0621 343.376C95.0431 343.376 100.027 344.719 104.015 347.406C108.089 350.094 111.122 353.777 113.116 358.458C115.196 363.052 116.237 368.297 116.237 374.191C116.237 375.751 116.15 377.311 115.977 378.872C115.803 380.345 115.63 381.472 115.457 382.252H72.9393L72.8093 370.42H101.024C101.024 366.346 100.071 363.096 98.1636 360.669C96.3433 358.242 93.4395 357.028 89.4521 357.028C87.1117 357.028 84.858 357.678 82.691 358.978C80.5239 360.279 78.747 362.402 77.3601 365.349C75.9732 368.297 75.2797 372.241 75.2797 377.181C75.2797 382.122 76.1465 386.066 77.8802 389.013C79.7005 391.874 81.9975 393.954 84.7713 395.254C87.5451 396.555 90.4923 397.205 93.6128 397.205C96.2133 397.205 98.6403 396.858 100.894 396.165C103.234 395.385 105.575 394.301 107.915 392.914L113.766 403.706C110.559 405.873 106.962 407.607 102.974 408.907C99.0737 410.207 95.1731 410.857 91.2724 410.857ZM134.917 409.297V344.936H149.35L150.65 356.248H151.17C153.51 352 156.284 348.793 159.491 346.626C162.785 344.459 166.079 343.376 169.373 343.376C171.107 343.376 172.58 343.506 173.794 343.766C175.007 343.939 176.047 344.243 176.914 344.676L173.924 360.019C172.797 359.758 171.713 359.542 170.673 359.368C169.72 359.108 168.55 358.978 167.163 358.978C164.649 358.978 162.048 359.888 159.361 361.709C156.674 363.529 154.42 366.736 152.6 371.33V409.297H134.917ZM190.781 409.297V344.936H205.213L206.514 356.248H207.034C209.374 352 212.148 348.793 215.355 346.626C218.649 344.459 221.943 343.376 225.237 343.376C226.97 343.376 228.444 343.506 229.658 343.766C230.871 343.939 231.911 344.243 232.778 344.676L229.788 360.019C228.661 359.758 227.577 359.542 226.537 359.368C225.583 359.108 224.413 358.978 223.026 358.978C220.513 358.978 217.912 359.888 215.225 361.709C212.538 363.529 210.284 366.736 208.464 371.33V409.297H190.781ZM259.082 410.857C255.181 410.857 251.801 410.034 248.94 408.387C246.08 406.653 243.87 404.356 242.309 401.496C240.749 398.548 239.969 395.254 239.969 391.614C239.969 384.853 242.873 379.565 248.68 375.751C254.488 371.937 263.806 369.337 276.635 367.95C276.548 365.956 276.158 364.179 275.465 362.619C274.771 361.059 273.645 359.845 272.084 358.978C270.524 358.025 268.487 357.548 265.973 357.548C263.113 357.548 260.252 358.112 257.392 359.238C254.618 360.365 251.714 361.795 248.68 363.529L242.309 351.827C244.91 350.267 247.64 348.837 250.501 347.536C253.448 346.236 256.482 345.239 259.602 344.546C262.723 343.766 265.973 343.376 269.354 343.376C274.815 343.376 279.409 344.459 283.136 346.626C286.863 348.793 289.681 352 291.588 356.248C293.495 360.409 294.448 365.696 294.448 372.111V409.297H279.886L278.585 402.536H278.195C275.422 404.963 272.431 406.956 269.224 408.517C266.103 410.077 262.723 410.857 259.082 410.857ZM264.933 397.075C267.273 397.075 269.311 396.555 271.044 395.515C272.864 394.388 274.728 392.914 276.635 391.094V378.742C271.694 379.435 267.794 380.345 264.933 381.472C262.073 382.512 260.036 383.813 258.822 385.373C257.609 386.846 257.002 388.45 257.002 390.184C257.002 392.524 257.739 394.258 259.212 395.385C260.686 396.511 262.593 397.075 264.933 397.075ZM344.04 410.857C338.146 410.857 332.815 409.557 328.048 406.956C323.28 404.269 319.51 400.412 316.736 395.385C313.962 390.357 312.575 384.289 312.575 377.181C312.575 370.074 314.092 364.006 317.126 358.978C320.246 353.951 324.32 350.094 329.348 347.406C334.375 344.719 339.793 343.376 345.601 343.376C349.588 343.376 353.142 344.069 356.262 345.456C359.383 346.756 362.113 348.403 364.454 350.397L356.002 361.839C354.442 360.452 352.925 359.455 351.452 358.848C349.978 358.155 348.374 357.808 346.641 357.808C343.434 357.808 340.616 358.632 338.189 360.279C335.849 361.839 334.029 364.093 332.728 367.04C331.428 369.9 330.778 373.281 330.778 377.181C330.778 381.082 331.428 384.506 332.728 387.453C334.029 390.314 335.806 392.524 338.059 394.084C340.4 395.645 343.043 396.425 345.991 396.425C348.244 396.425 350.411 395.948 352.492 394.994C354.572 394.041 356.479 392.871 358.213 391.484L365.234 403.056C362.113 405.83 358.689 407.823 354.962 409.037C351.235 410.25 347.594 410.857 344.04 410.857ZM405.99 410.857C400.529 410.857 395.415 409.557 390.647 406.956C385.966 404.269 382.152 400.412 379.205 395.385C376.345 390.357 374.914 384.289 374.914 377.181C374.914 370.074 376.345 364.006 379.205 358.978C382.152 353.951 385.966 350.094 390.647 347.406C395.415 344.719 400.529 343.376 405.99 343.376C411.364 343.376 416.392 344.719 421.072 347.406C425.84 350.094 429.697 353.951 432.644 358.978C435.591 364.006 437.065 370.074 437.065 377.181C437.065 384.289 435.591 390.357 432.644 395.385C429.697 400.412 425.84 404.269 421.072 406.956C416.392 409.557 411.364 410.857 405.99 410.857ZM405.99 396.425C408.764 396.425 411.104 395.645 413.011 394.084C414.918 392.524 416.348 390.314 417.302 387.453C418.342 384.506 418.862 381.082 418.862 377.181C418.862 373.281 418.342 369.9 417.302 367.04C416.348 364.093 414.918 361.839 413.011 360.279C411.104 358.632 408.764 357.808 405.99 357.808C403.129 357.808 400.746 358.632 398.839 360.279C396.932 361.839 395.501 364.093 394.548 367.04C393.594 369.9 393.118 373.281 393.118 377.181C393.118 381.082 393.594 384.506 394.548 387.453C395.501 390.314 396.932 392.524 398.839 394.084C400.746 395.645 403.129 396.425 405.99 396.425ZM476.636 410.857C468.835 410.857 463.287 408.603 459.994 404.096C456.7 399.589 455.053 393.694 455.053 386.413V358.978H446.081V345.716L455.963 344.936L458.043 327.773H472.736V344.936H488.468V358.978H472.736V386.283C472.736 389.924 473.473 392.611 474.946 394.344C476.506 395.991 478.63 396.815 481.317 396.815C482.444 396.815 483.571 396.685 484.698 396.425C485.825 396.165 486.821 395.861 487.688 395.515L490.549 408.517C488.815 409.037 486.778 409.557 484.438 410.077C482.097 410.597 479.497 410.857 476.636 410.857ZM528.183 410.857C520.382 410.857 514.834 408.603 511.54 404.096C508.246 399.589 506.599 393.694 506.599 386.413V358.978H497.628V345.716L507.51 344.936L509.59 327.773H524.282V344.936H540.015V358.978H524.282V386.283C524.282 389.924 525.019 392.611 526.493 394.344C528.053 395.991 530.177 396.815 532.864 396.815C533.991 396.815 535.118 396.685 536.244 396.425C537.371 396.165 538.368 395.861 539.235 395.515L542.095 408.517C540.362 409.037 538.325 409.557 535.984 410.077C533.644 410.597 531.044 410.857 528.183 410.857ZM571.668 410.857C567.768 410.857 564.387 410.034 561.527 408.387C558.666 406.653 556.456 404.356 554.895 401.496C553.335 398.548 552.555 395.254 552.555 391.614C552.555 384.853 555.459 379.565 561.267 375.751C567.074 371.937 576.392 369.337 589.221 367.95C589.135 365.956 588.745 364.179 588.051 362.619C587.358 361.059 586.231 359.845 584.671 358.978C583.11 358.025 581.073 357.548 578.559 357.548C575.699 357.548 572.839 358.112 569.978 359.238C567.204 360.365 564.3 361.795 561.267 363.529L554.895 351.827C557.496 350.267 560.226 348.837 563.087 347.536C566.034 346.236 569.068 345.239 572.188 344.546C575.309 343.766 578.559 343.376 581.94 343.376C587.401 343.376 591.995 344.459 595.722 346.626C599.45 348.793 602.267 352 604.174 356.248C606.081 360.409 607.034 365.696 607.034 372.111V409.297H592.472L591.172 402.536H590.782C588.008 404.963 585.017 406.956 581.81 408.517C578.69 410.077 575.309 410.857 571.668 410.857ZM577.519 397.075C579.86 397.075 581.897 396.555 583.63 395.515C585.451 394.388 587.314 392.914 589.221 391.094V378.742C584.28 379.435 580.38 380.345 577.519 381.472C574.659 382.512 572.622 383.813 571.408 385.373C570.195 386.846 569.588 388.45 569.588 390.184C569.588 392.524 570.325 394.258 571.798 395.385C573.272 396.511 575.179 397.075 577.519 397.075Z" fill="#203053"/>
</svg>
