<svg width="20" height="20" viewBox="0 0 20 20" fill="none" xmlns="http://www.w3.org/2000/svg">
<path d="M15.7222 19.6667L9 12.8889C8.62963 13.037 8.25463 13.1481 7.875 13.2222C7.49537 13.2963 7.09259 13.3333 6.66667 13.3333C4.81482 13.3333 3.24074 12.6852 1.94444 11.3889C0.648148 10.0926 0 8.51852 0 6.66667C0 6 0.0925926 5.36574 0.277778 4.76389C0.462963 4.16204 0.722222 3.59259 1.05556 3.05556L5.11111 7.11111L7.11111 5.11111L3.05556 1.05556C3.59259 0.722222 4.16204 0.462963 4.76389 0.277778C5.36574 0.0925926 6 0 6.66667 0C8.51852 0 10.0926 0.648148 11.3889 1.94444C12.6852 3.24074 13.3333 4.81482 13.3333 6.66667C13.3333 7.09259 13.2963 7.49537 13.2222 7.875C13.1481 8.25463 13.037 8.62963 12.8889 9L19.6667 15.7222C19.8889 15.9444 20 16.213 20 16.5278C20 16.8426 19.8889 17.1111 19.6667 17.3333L17.3333 19.6667C17.1111 19.8889 16.8426 20 16.5278 20C16.213 20 15.9444 19.8889 15.7222 19.6667ZM16.5278 17.3056L17.2778 16.5556L10.1667 9.44444C10.5 9.07407 10.7407 8.64352 10.8889 8.15278C11.037 7.66204 11.1111 7.16667 11.1111 6.66667C11.1111 5.55556 10.7546 4.58796 10.0417 3.76389C9.3287 2.93981 8.44444 2.44444 7.38889 2.27778L9.44444 4.33333C9.66667 4.55556 9.77778 4.81482 9.77778 5.11111C9.77778 5.40741 9.66667 5.66667 9.44444 5.88889L5.88889 9.44444C5.66667 9.66667 5.40741 9.77778 5.11111 9.77778C4.81482 9.77778 4.55556 9.66667 4.33333 9.44444L2.27778 7.38889C2.44444 8.44444 2.93981 9.3287 3.76389 10.0417C4.58796 10.7546 5.55556 11.1111 6.66667 11.1111C7.14815 11.1111 7.62963 11.037 8.11111 10.8889C8.59259 10.7407 9.02778 10.5093 9.41667 10.1944L16.5278 17.3056Z" fill="#5F6368"/>
</svg>
